<svg width="94" height="79" viewBox="0 0 94 79" fill="none" xmlns="http://www.w3.org/2000/svg">
<path d="M0 44.5V10.5L25 0L50 10.5V44.5L25 54.5L0 44.5Z" transform="translate(23.5 23.5)" fill="white"/>
<path d="M25.8471 0.0421991L50.8352 10.2228C51.0662 10.318 51.2282 10.5655 51.2256 10.8194V45.179C51.2206 45.4262 51.0602 45.663 50.8352 45.7557L25.8471 55.9363C25.6987 55.9974 25.527 55.9974 25.3786 55.9363L0.390467 45.7557C0.165418 45.663 0.00510711 45.4262 2.82748e-05 45.179V10.8194C-0.00247054 10.5655 0.159421 10.318 0.390467 10.2228L25.3786 0.0421991C25.5937 -0.0435092 25.7461 0.0250192 25.8471 0.0421991V0.0421991ZM25.6128 1.31478L2.30362 10.8194L11.1275 14.3985L33.1288 4.37692L25.6128 1.31478ZM38.7121 6.64371L15.9885 16.3869L25.6128 20.304L48.922 10.7995L38.7121 6.64371ZM49.9762 11.7539L26.2375 21.4175V54.4052L49.9762 44.7416V11.7539ZM1.24943 11.7539V44.7416L24.9881 54.4052V21.4175L15.6176 17.5998V27.9992L10.62 26.0903V15.5717L1.24943 11.7539Z" transform="translate(22.767 23.0179)" fill="#536170"/>
<path d="M6.40321 3.94745C3.76638 4.33216 3.51376 4.64411 3.20152 7.89491C2.88961 4.64411 2.6365 4.332 3.07382e-07 3.94745C2.6365 3.56258 2.88961 3.2508 3.20152 -1.9478e-08C3.51376 3.2508 3.76638 3.56258 6.40321 3.94745Z" transform="translate(19.9211 18.7115)" fill="#C5D1DE"/>
<path d="M9.72414 5.70103C5.71976 6.25664 5.33613 6.70716 4.86195 11.4021C4.38826 6.70716 4.00388 6.25641 4.66801e-07 5.70103C4.00388 5.14519 4.38826 4.6949 4.86195 -2.81307e-08C5.33613 4.6949 5.71976 5.14519 9.72414 5.70103Z" transform="translate(47.8104)" fill="#C5D1DE"/>
<rect width="1.57721" height="1.57721" transform="translate(12.0518 42.3528) scale(0.995616 1.00436) rotate(45)" fill="#C5D1DE"/>
<path fill-rule="evenodd" clip-rule="evenodd" d="M8.18167 20.0961C8.97961 11.8214 9.62518 11.0273 16.3637 10.0481C9.62518 9.06836 8.97961 8.27478 8.18167 0C7.38455 8.27478 6.73773 9.06836 0 10.0481C6.73773 11.0269 7.38455 11.8214 8.18167 20.0961ZM9.56168 10.2059L7.98245 8.61279L6.40323 10.2059L7.98245 11.799L9.56168 10.2059Z" transform="translate(9.49496 2.44324)" fill="#C5D1DE"/>
<path fill-rule="evenodd" clip-rule="evenodd" d="M6.04733 15.0721C6.63712 8.86597 7.11429 8.27051 12.0949 7.53601C7.11429 6.80127 6.63712 6.20605 6.04733 0C5.45813 6.20605 4.98004 6.80127 0 7.53601C4.98004 8.27014 5.45813 8.86597 6.04733 15.0721ZM7.20099 7.57947L6.09064 6.45935L4.98029 7.57947L6.09064 8.69958L7.20099 7.57947Z" transform="translate(0 42.3962)" fill="#C5D1DE"/>
<rect width="1.57719" height="1.57719" transform="translate(92.8896 57.1531) scale(0.995616 1.00436) rotate(45)" fill="#C5D1DE"/>
<path fill-rule="evenodd" clip-rule="evenodd" d="M7.1145 17.943C7.80835 10.5548 8.36975 9.84583 14.2293 8.97144C8.36975 8.0968 7.80835 7.38818 7.1145 0C6.42136 7.38818 5.85889 8.0968 0 8.97144C5.85889 9.84546 6.42136 10.5548 7.1145 17.943ZM8.47177 9.02332L7.16547 7.68982L5.85916 9.02332L7.16547 10.3567L8.47177 9.02332Z" transform="translate(78.9729 43.114)" fill="#C5D1DE"/>
<rect width="1.57719" height="1.57719" transform="translate(72.9686 11.9369) scale(0.995616 1.00436) rotate(45)" fill="#C5D1DE"/>
<path fill-rule="evenodd" clip-rule="evenodd" d="M6.04733 15.0721C6.63712 8.86597 7.11429 8.27051 12.0949 7.53601C7.11429 6.80127 6.63712 6.20605 6.04733 0C5.45813 6.20605 4.98004 6.80127 0 7.53601C4.98004 8.27014 5.45813 8.86597 6.04733 15.0721ZM7.20096 7.57947L6.09061 6.45935L4.98026 7.57947L6.09061 8.69958L7.20096 7.57947Z" transform="translate(74.7041 12.2522)" fill="#C5D1DE"/>
</svg>
