<?xml version="1.0" encoding="utf-8"?>
<!-- Generator: Adobe Illustrator 21.1.0, SVG Export Plug-In . SVG Version: 6.00 Build 0)  -->
<svg version="1.1" id="Layer_1" xmlns="http://www.w3.org/2000/svg" xmlns:xlink="http://www.w3.org/1999/xlink" x="0px" y="0px"
	 width="80px" height="80px" viewBox="0 0 80 80" style="enable-background:new 0 0 80 80;" xml:space="preserve">
<style type="text/css">
	.st0{fill:none;}
	.st1{fill:#00BFB3;}
	.st2{fill:#14A7DF;}
</style>
<rect class="st0" width="80" height="80"/>
<title>icons-masterfilefinal</title>
<g>
	<g>
		<path class="st1" d="M36,58.5c-6,0-11.7-2.3-15.9-6.6c-4.2-4.2-6.6-9.9-6.6-15.9s2.3-11.7,6.6-15.9c4.2-4.2,9.9-6.6,15.9-6.6
			s11.7,2.3,15.9,6.6l0,0l0,0c4.2,4.2,6.6,9.9,6.6,15.9s-2.3,11.7-6.6,15.9C47.7,56.2,42,58.5,36,58.5z M36,18.5
			c-4.7,0-9.1,1.8-12.4,5.1s-5.1,7.7-5.1,12.4s1.8,9.1,5.1,12.4c3.3,3.3,7.7,5.1,12.4,5.1s9.1-1.8,12.4-5.1s5.1-7.7,5.1-12.4
			s-1.8-9.1-5.1-12.4l0,0C45.1,20.3,40.7,18.5,36,18.5z"/>
	</g>
	<g>
		<g>
			<path id="SVGID_1_" class="st2" d="M44.6,45c4.6-4.6,4.6-12,0-16.6s-12-4.6-16.6,0L44.6,45z"/>
		</g>
		<g>
			<defs>
				<path id="SVGID_2_" d="M44.6,45c4.6-4.6,4.6-12,0-16.6s-12-4.6-16.6,0L44.6,45z"/>
			</defs>
			<clipPath id="SVGID_3_">
				<use xlink:href="#SVGID_2_"  style="overflow:visible;"/>
			</clipPath>
		</g>
	</g>
	<g>
		<path class="st2" d="M64,66.5c-0.6,0-1.3-0.2-1.8-0.7l-14-14c-1-1-1-2.6,0-3.5s2.6-1,3.5,0l14,14c1,1,1,2.6,0,3.5
			C65.3,66.3,64.6,66.5,64,66.5z"/>
	</g>
</g>
</svg>
